<?xml version="1.0" encoding="UTF-8"?>
<svg version="1.1" xmlns="http://www.w3.org/2000/svg" width="2000" height="2000">
<path d="M0 0 C660 0 1320 0 2000 0 C2000 660 2000 1320 2000 2000 C1340 2000 680 2000 0 2000 C0 1340 0 680 0 0 Z " fill="#FEDD58" transform="translate(0,0)"/>
<path d="M0 0 C0.69039997 0.02963711 1.38079994 0.05927422 2.09212112 0.08980942 C20.9739579 0.90478608 39.70800281 2.43697424 58.50164795 4.36227417 C62.60076041 4.77267835 66.70226789 5.13168214 70.80859375 5.4609375 C101.86648247 7.98134742 132.66679507 11.5671748 163.18554688 17.94677734 C166.81247572 18.70048297 170.44392786 19.42674325 174.078125 20.14453125 C178.37980507 20.99427538 182.68135625 21.8443768 186.98046875 22.70703125 C187.80957764 22.87307861 188.63868652 23.03912598 189.49291992 23.21020508 C191.59364858 23.65443704 193.66866849 24.16108083 195.75 24.6875 C196.81877919 70.25261107 196.90693906 115.80555966 196.87856841 161.38098872 C196.87420131 169.23190161 196.87735219 177.08279861 196.8821975 184.93371052 C196.8867549 192.63529162 196.88736861 200.3368659 196.88475883 208.03844792 C196.8832201 212.5832625 196.88293628 217.12806633 196.88629532 221.67288017 C196.88921566 225.91300972 196.88712324 230.15310975 196.88140106 234.39323616 C196.88009884 235.9289406 196.88042326 237.4646476 196.88266373 239.00035095 C196.89712034 249.92755061 196.44883805 260.78288397 195.75 271.6875 C188.32645501 273.06761263 181.09741103 273.85239315 173.5625 274.125 C166.58413602 274.38305408 159.62331917 274.7425684 152.66015625 275.2734375 C151.91641754 275.33003036 151.17267883 275.38662323 150.40640259 275.44493103 C148.81336924 275.56643463 147.22034169 275.68801427 145.62731934 275.80966187 C120.81670695 277.69687331 95.97384538 278.94543316 71.12496853 280.20214748 C67.85203727 280.36786481 64.57917647 280.53495322 61.30631447 280.70203209 C59.04118549 280.81683913 56.77593732 280.92901435 54.51066589 281.04096985 C48.7194654 281.33246319 42.94007811 281.63614623 37.16821289 282.20336914 C31.09458479 282.7916561 25.01615375 283.0120507 18.91935539 283.22707176 C16.75833695 283.30352669 14.59749696 283.38397139 12.43666077 283.46540833 C9.30236188 283.58345638 6.16802822 283.70049487 3.03366089 283.81671143 C-28.60089701 284.99408651 -60.20517806 286.50972442 -91.80908203 288.3293457 C-94.66566687 288.49340913 -97.52227817 288.65700391 -100.37890625 288.8203125 C-101.06439922 288.85962261 -101.7498922 288.89893272 -102.45615768 288.93943405 C-112.83558192 289.53180105 -123.21568855 289.98933412 -133.60527039 290.36174011 C-141.62339359 290.6513099 -149.62005831 291.07374476 -157.625 291.625 C-159.5738208 291.75575928 -159.5738208 291.75575928 -161.56201172 291.88916016 C-164.20753463 292.06709553 -166.85280994 292.24796153 -169.49804688 292.43017578 C-172.95142922 292.6670228 -176.40526443 292.89516779 -179.859375 293.12109375 C-197.03699216 294.27134603 -214.17696591 295.79967905 -231.32080078 297.36669922 C-232.27769806 297.45361023 -233.23459534 297.54052124 -234.2204895 297.63006592 C-236.03075605 297.79467716 -237.84088432 297.96081862 -239.65084839 298.12872314 C-240.46216217 298.20242126 -241.27347595 298.27611938 -242.109375 298.35205078 C-242.81545898 298.41707794 -243.52154297 298.4821051 -244.24902344 298.54910278 C-246.24511213 298.68716193 -248.24914259 298.6875 -250.25 298.6875 C-257.26881544 319.40841096 -257.26881544 319.40841096 -262.25 340.6875 C-262.55744141 342.16669922 -262.55744141 342.16669922 -262.87109375 343.67578125 C-268.92530758 377.2035999 -263.36560917 418.10622757 -246.00195312 447.82348633 C-243.62654836 450.3508296 -242.02732023 450.36833409 -238.60546875 450.69921875 C-237.45111328 450.81716797 -236.29675781 450.93511719 -235.10742188 451.05664062 C-233.89634766 451.16169922 -232.68527344 451.26675781 -231.4375 451.375 C-230.29990234 451.49166016 -229.16230469 451.60832031 -227.99023438 451.72851562 C-209.07557661 453.55896638 -190.09407591 453.84190364 -171.10546875 453.8203125 C-168.95477792 453.82098943 -166.80408718 453.82196265 -164.65339661 453.82321167 C-160.1819281 453.82467135 -155.7104798 453.82259123 -151.23901367 453.81787109 C-145.58551255 453.81218541 -139.93205906 453.81545669 -134.27855968 453.82144356 C-129.84686441 453.8251054 -125.41517991 453.82388501 -120.98348427 453.82131577 C-118.90245877 453.82066138 -116.82143219 453.82142097 -114.74040794 453.82379532 C-103.47394735 453.83383318 -92.22879535 453.68046526 -80.9699707 453.24560547 C-79.96119212 453.20740755 -78.95241354 453.16920963 -77.91306591 453.1298542 C-71.31018472 452.85037113 -64.75912158 452.31869518 -58.1875 451.625 C-49.49690867 450.718142 -40.98768799 450.46504118 -32.25 450.6875 C-30.03665541 457.9743281 -28.63642376 464.94414006 -28.078125 472.53515625 C-27.99854553 473.56270523 -27.91896606 474.59025421 -27.8369751 475.64894104 C-26.96035434 488.11969291 -26.94281751 500.5941475 -26.99285889 513.09000015 C-27.00016384 515.17168997 -27.00327695 517.25335127 -27.00537109 519.33505249 C-27.03380946 542.31625501 -27.59344357 565.26540883 -28.3207283 588.23365784 C-29.15045789 614.50387393 -29.44972365 640.7540267 -29.43847656 667.03731918 C-29.43750447 669.86200905 -29.43846834 672.68669338 -29.43969727 675.51138306 C-29.44064256 679.94528648 -29.43508282 684.37913382 -29.42376137 688.81302261 C-29.41994221 690.44808816 -29.4175182 692.08315765 -29.41658592 693.71822739 C-29.41444851 695.96348594 -29.40582284 698.20862472 -29.39526367 700.45385742 C-29.39145187 701.71260178 -29.38764008 702.97134613 -29.38371277 704.26823425 C-29.25735305 707.49946988 -28.82450703 710.51043539 -28.25 713.6875 C-28.18539781 715.81161996 -28.16388921 717.93752905 -28.1875 720.0625 C-28.19652344 721.12210938 -28.20554687 722.18171875 -28.21484375 723.2734375 C-28.23224609 724.46839844 -28.23224609 724.46839844 -28.25 725.6875 C-65.82583899 737.37548266 -109.59292901 737.55965154 -148.57702637 740.59754944 C-162.17776004 741.65907937 -175.70975876 743.01238179 -189.25 744.6875 C-190.84859382 744.88215645 -192.44722978 745.07646693 -194.04589844 745.27050781 C-199.42718083 745.92430377 -204.80750907 746.58566753 -210.1875 747.25 C-211.04957062 747.35609589 -211.91164124 747.46219177 -212.79983521 747.57150269 C-224.4309148 749.00491693 -224.4309148 749.00491693 -236.00390625 750.83984375 C-240.17329091 751.57191226 -244.02347239 751.87961489 -248.25 751.6875 C-248.23839844 752.70070313 -248.22679687 753.71390625 -248.21484375 754.7578125 C-248.20545791 756.10937314 -248.19635857 757.4609358 -248.1875 758.8125 C-248.17912109 759.47765625 -248.17074219 760.1428125 -248.16210938 760.828125 C-248.14757461 763.79321727 -248.23749741 766.61273998 -248.72705078 769.54005432 C-249.24861114 772.67914095 -249.51779603 775.73873028 -249.71484375 778.91381836 C-249.79162354 780.12625717 -249.86840332 781.33869598 -249.94750977 782.58787537 C-250.02670654 783.88789993 -250.10590332 785.1879245 -250.1875 786.52734375 C-250.27307717 787.89532693 -250.35893845 789.26329236 -250.44506836 790.63124084 C-250.67096788 794.23051742 -250.89321448 797.83001023 -251.11462402 801.42956543 C-251.33739818 805.04236355 -251.56326562 808.65496786 -251.7890625 812.26757812 C-252.04466468 816.35718571 -252.29980147 820.44681692 -252.55249023 824.53660583 C-252.94145105 830.82245038 -253.34571208 837.1065803 -253.77734375 843.38964844 C-254.20387576 849.75388561 -254.51735191 856.11429267 -254.75 862.48828125 C-254.79028824 863.5502623 -254.83057648 864.61224335 -254.87208557 865.70640564 C-255.00099893 869.13750232 -255.12600629 872.56872219 -255.25 876 C-255.31536453 877.79298523 -255.31536453 877.79298523 -255.38204956 879.62219238 C-256.45167188 909.1093956 -257.14540098 938.58847023 -257.56446838 968.09182739 C-258.11027899 1006.51704903 -258.86135924 1044.93709926 -259.65817338 1083.35783052 C-259.83376692 1091.82818596 -260.00723017 1100.29858472 -260.18059647 1108.76898599 C-260.5348517 1126.07520322 -260.89152189 1143.38136973 -261.25 1160.6875 C-271.52797851 1161.89293942 -281.76591579 1162.98107648 -292.10546875 1163.50390625 C-293.25267899 1163.56529282 -294.39988922 1163.62667938 -295.5818634 1163.68992615 C-297.99397517 1163.81758819 -300.40622539 1163.94265978 -302.81860352 1164.06518555 C-306.35934446 1164.24600865 -309.89936249 1164.43777251 -313.43945312 1164.63085938 C-351.24215242 1166.63841495 -389.04323477 1166.87581612 -426.89208984 1166.87280273 C-432.1307316 1166.8727213 -437.36928621 1166.87971135 -442.60791016 1166.89331055 C-492.8109148 1167.02119583 -492.8109148 1167.02119583 -516.40625 1165.86328125 C-517.16639908 1165.82860434 -517.92654816 1165.79392742 -518.70973206 1165.75819969 C-526.76565771 1165.37505347 -534.66167505 1164.59806622 -542.61523438 1163.23901367 C-543.69667599 1163.05660488 -543.69667599 1163.05660488 -544.7999649 1162.87051105 C-548.20629795 1162.24512745 -550.32614841 1161.63673439 -553.25 1159.6875 C-553.62374616 1157.37375456 -553.62374616 1157.37375456 -553.6219368 1154.41019535 C-553.63182156 1152.72014475 -553.63182156 1152.72014475 -553.64190602 1150.99595171 C-553.63384962 1149.74714376 -553.62579321 1148.4983358 -553.61749268 1147.21168518 C-553.62239594 1145.23272913 -553.62239594 1145.23272913 -553.62739825 1143.21379417 C-553.63608497 1139.53613267 -553.62594329 1135.85872186 -553.61285591 1132.18108213 C-553.60198778 1128.21561537 -553.60836798 1124.25017259 -553.61264038 1120.28469849 C-553.61829603 1112.48725558 -553.60790157 1104.6899105 -553.59235242 1096.89248426 C-553.57474788 1087.73726227 -553.5733912 1078.58205892 -553.57273683 1069.42682265 C-553.57104383 1052.98919885 -553.55520399 1036.55161884 -553.53125 1020.11401367 C-553.50829507 1004.34968709 -553.49386909 988.5853881 -553.49023438 972.82104492 C-553.49001161 971.86188132 -553.48978884 970.90271772 -553.48955932 969.91448856 C-553.48911654 967.9807447 -553.48867452 966.04700085 -553.48823325 964.11325699 C-553.48801369 963.15809014 -553.48779412 962.20292329 -553.4875679 961.21881199 C-553.48735192 960.26528604 -553.48713593 959.31176009 -553.4869134 958.32933942 C-553.48313655 943.11429212 -553.47175622 927.89924901 -553.4594375 912.68420656 C-553.45510308 907.27006129 -553.45161758 901.85591637 -553.44882308 896.44177009 C-553.42621596 853.90844988 -553.17336113 811.38594448 -552.61687851 768.856143 C-552.57224604 765.44134357 -552.52772139 762.02654278 -552.4833374 758.61174011 C-552.47256706 757.78401599 -552.46179673 756.95629186 -552.45070001 756.10348519 C-552.1629906 733.85442765 -552.04791666 711.60536097 -551.97952008 689.35462475 C-551.96013558 683.30275278 -551.93663409 677.25089588 -551.91392517 671.19903564 C-551.8695879 659.19081216 -551.8294172 647.18257813 -551.79089385 635.174335 C-551.76130533 625.96328002 -551.73032743 616.75223075 -551.69829226 607.54118396 C-551.35320667 508.31344006 -551.10962927 409.08542386 -550.25 28.6875 C-536.76396461 24.74925166 -522.68983018 23.43431933 -508.76953125 21.796875 C-508.03588348 21.71046124 -507.30223572 21.62404747 -506.5463562 21.53501511 C-490.09858423 19.60744711 -473.62555671 18.00985943 -457.13241196 16.52673721 C-454.69176523 16.30726327 -452.25123196 16.08655446 -449.81069946 15.86581421 C-390.4736885 10.51287278 -331.05554707 6.39411693 -271.55725098 3.33705139 C-264.60883419 2.97889077 -257.66277155 2.5979539 -250.71801758 2.17431641 C-227.04964107 0.74291802 -203.39297736 0.03895596 -179.6875 -0.4375 C-178.68880512 -0.4580331 -177.69011024 -0.47856621 -176.66115189 -0.49972153 C-117.78688449 -1.70986502 -58.8484605 -2.57467019 0 0 Z " fill="#000000" transform="translate(1563.25,425.3125)"/>
<path d="M0 0 C0.00634791 1.49326356 0.00634791 1.49326356 0.01282406 3.01669407 C0.1172042 27.52917362 0.22607422 52.04163033 0.33933926 76.55407047 C0.39402085 88.40933005 0.44735248 100.26459257 0.49731445 112.11987305 C0.81610609 204.29042907 0.81610609 204.29042907 3.39984894 296.4187088 C3.71289319 304.09638913 4.0077089 311.77480977 4.3046875 319.453125 C4.33661572 320.27421879 4.36854393 321.09531258 4.40143967 321.94128799 C4.98722908 337.04470865 5.4396476 352.14858074 5.70898438 367.26123047 C5.82171719 373.3343397 5.99342691 379.37380985 6.48828125 385.4296875 C7.32893773 396.43366522 7.39352629 407.4692015 7.5625 418.5 C7.57284019 419.1531015 7.58318039 419.806203 7.59383392 420.47909546 C8.09171303 452.07849105 8.10992425 483.68177688 8.12211341 515.28436708 C8.12372891 519.37415753 8.12664018 523.46394379 8.13082403 527.5537324 C8.17930129 575.47491049 7.73942808 623.38591302 6.125 671.28271484 C5.99484944 675.15316869 5.87210759 679.02381592 5.75 682.89453125 C5.66707503 685.45053411 5.58375889 688.00652433 5.5 690.5625 C5.46455078 691.67399414 5.42910156 692.78548828 5.39257812 693.93066406 C5.18378976 700.04596541 4.87999073 706.14768095 4.5 712.25415039 C3.96449277 720.95666675 3.70689391 729.65544866 3.5 738.37109375 C3.45928133 739.9884566 3.41825826 741.60581181 3.37695312 743.22315979 C3.26976028 747.44288565 3.16562157 751.66268021 3.0625 755.88250732 C1.48493079 820.37335174 1.48493079 820.37335174 -0.3125 839.5625 C-0.37691284 840.26168549 -0.44132568 840.96087097 -0.50769043 841.6812439 C-0.97984625 846.79011519 -1.48220342 851.89556916 -2 857 C-2.0691864 857.68811768 -2.1383728 858.37623535 -2.20965576 859.08520508 C-4.30925505 879.83084928 -7.66722703 900.20521395 -11.74459839 920.65106201 C-12.73187312 925.60428238 -13.67089034 930.56494147 -14.58984375 935.53125 C-20.0135678 964.64863774 -29.89932696 993.01030131 -42 1020 C-42.38978027 1020.87978516 -42.77956055 1021.75957031 -43.18115234 1022.66601562 C-52.36402334 1043.23870124 -63.71185638 1062.80511378 -77 1081 C-77.91458984 1082.26263672 -77.91458984 1082.26263672 -78.84765625 1083.55078125 C-89.99237365 1098.38405759 -103.99424613 1113.09653856 -119 1124 C-119.54253418 1124.39719238 -120.08506836 1124.79438477 -120.64404297 1125.20361328 C-138.0695706 1137.86505396 -156.57316693 1147.67747989 -176.4375 1155.92871094 C-179.29840067 1157.12475058 -182.13702104 1158.36492759 -184.97167969 1159.62158203 C-187.5322664 1160.75652643 -190.10074511 1161.87294195 -192.66992188 1162.98828125 C-194.39331821 1163.73657907 -196.11584281 1164.4868853 -197.83789062 1165.23828125 C-227.36970302 1178.08785981 -256.89757241 1187.81425663 -288.6875 1193.25 C-289.36614105 1193.36901672 -290.0447821 1193.48803345 -290.74398804 1193.61065674 C-317.40800625 1198.22747052 -344.15886839 1199.509419 -371.16259766 1199.39111328 C-375.08334524 1199.37405242 -379.00348008 1199.38420276 -382.92420673 1199.40142536 C-410.40817264 1199.50373932 -437.72191208 1197.98062558 -464.86645508 1193.42993164 C-467.12826366 1193.05149674 -469.39273474 1192.69370454 -471.65820312 1192.33789062 C-485.60463171 1190.10441408 -499.49288391 1187.34803652 -512.75 1182.375 C-513.66410645 1182.03581543 -514.57821289 1181.69663086 -515.52001953 1181.34716797 C-542.88610884 1170.95171473 -567.42500206 1155.89104296 -588.46191406 1135.49121094 C-589.99314713 1134.00664402 -591.53914477 1132.53863762 -593.0859375 1131.0703125 C-600.49545988 1123.9451338 -606.88590805 1116.25311967 -613 1108 C-613.43054688 1107.41959961 -613.86109375 1106.83919922 -614.3046875 1106.24121094 C-645.60302252 1063.77506092 -666.63437791 1014.88376369 -680 964 C-680.32895264 962.75379883 -680.32895264 962.75379883 -680.66455078 961.48242188 C-685.76464515 941.86292009 -689.53223103 921.96285758 -693 902 C-693.12330688 901.29333191 -693.24661377 900.58666382 -693.37365723 899.85858154 C-696.830069 879.89901232 -698.74382188 859.8824246 -700.25 839.6875 C-700.33317474 838.58270294 -700.41634949 837.47790588 -700.50204468 836.33963013 C-702.56542703 808.46179684 -703.17407947 780.60269833 -703.13037109 752.66064453 C-703.1245682 748.93177025 -703.12804355 745.20296634 -703.13394356 741.47409439 C-703.13757075 738.54166132 -703.13640248 735.60924481 -703.13381577 732.67681122 C-703.13284404 730.64409843 -703.13582893 728.61138495 -703.13894653 726.57867432 C-703.12140255 719.65603098 -702.87806088 712.87002842 -702 706 C-663.64462068 697.82915394 -624.76539961 697.81623612 -585.70556641 697.86962891 C-581.41375469 697.87542725 -577.12200416 697.87196241 -572.83019447 697.86605644 C-569.47235655 697.86243936 -566.11453316 697.86359298 -562.75669479 697.86618423 C-561.17238736 697.86684511 -559.58807856 697.86605491 -558.00377274 697.86370468 C-555.80537644 697.86114779 -553.60708028 697.86505664 -551.40869141 697.87060547 C-549.54587021 697.87179886 -549.54587021 697.87179886 -547.64541626 697.87301636 C-543.6949248 698.01062692 -539.91575209 698.46836894 -536 699 C-533.88173375 699.16425403 -531.76176441 699.30803682 -529.640625 699.4296875 C-528.45750732 699.50098877 -527.27438965 699.57229004 -526.05541992 699.64575195 C-524.79963135 699.72140381 -523.54384277 699.79705566 -522.25 699.875 C-501.33384561 701.2037079 -480.59807341 703.50148881 -459.875 706.625 C-459.14115082 706.73518463 -458.40730164 706.84536926 -457.6512146 706.95889282 C-455.5766089 707.27254325 -453.50298794 707.59190781 -451.4296875 707.9140625 C-450.23585449 708.0992041 -449.04202148 708.2843457 -447.81201172 708.47509766 C-445 709 -445 709 -443 710 C-442.64066047 712.9923744 -442.40942077 715.90885731 -442.25390625 718.9140625 C-442.198396 719.8273381 -442.14288574 720.74061371 -442.08569336 721.68156433 C-441.96648874 723.64284768 -441.85107953 725.60436461 -441.73904419 727.56607056 C-441.44585919 732.64600122 -441.11591922 737.72343565 -440.78125 742.80078125 C-440.68330894 744.28686134 -440.68330894 744.28686134 -440.58338928 745.80296326 C-439.8742329 756.28328116 -438.68485083 766.63304987 -437 777 C-436.77376953 778.44125244 -436.77376953 778.44125244 -436.54296875 779.91162109 C-434.66450133 791.78758226 -432.58553654 803.5055724 -429 815 C-428.72140137 815.89332031 -428.44280273 816.78664063 -428.15576172 817.70703125 C-418.13589623 849.44613812 -403.63538506 884.86061514 -372.85546875 901.72265625 C-363.85869659 905.98538765 -354.9027789 907.53113033 -345.09057617 908.73364258 C-343.26010945 908.96685981 -341.43745804 909.25982222 -339.6171875 909.5625 C-334.75570534 910.15049784 -329.95496612 910.18419651 -325.0625 910.1875 C-324.11181641 910.19974609 -323.16113281 910.21199219 -322.18164062 910.22460938 C-304.25219563 910.26167921 -289.51072127 901.32020267 -277 889 C-257.07608041 869.11699195 -249.25426879 840.37493048 -244.46142578 813.54516602 C-244.16818397 811.92768143 -243.8445737 810.31518689 -243.48073578 808.71210575 C-242.96030688 805.7760684 -242.8621069 803.04295589 -242.84680176 800.06114197 C-242.83892136 798.84931936 -242.83104095 797.63749676 -242.82292175 796.38895226 C-242.81973167 795.03265844 -242.81692477 793.67636368 -242.81445312 792.32006836 C-242.80895666 790.85475441 -242.80336348 789.38944083 -242.79768372 787.92412758 C-242.78170622 782.91686097 -242.7809022 777.90963169 -242.78125 772.90234375 C-242.78067691 771.56941162 -242.78067691 771.56941162 -242.78009224 770.20955157 C-242.76638972 731.21769805 -243.40276692 692.2381178 -244.09375 653.25390625 C-244.1214046 651.69033152 -244.1490559 650.12675673 -244.17670393 648.56318188 C-244.41957611 634.83897306 -244.66514616 621.1148126 -244.9126321 607.39068624 C-245.61046791 568.69212226 -246.27422265 529.99304599 -246.8828125 491.29296875 C-246.90309308 490.00390993 -246.90309308 490.00390993 -246.92378336 488.68880951 C-247.95986766 422.70331298 -248.46640743 356.73210144 -248.37929916 290.73767233 C-248.37501064 287.38331864 -248.3715064 284.02896492 -248.36819458 280.67461014 C-248.35414913 267.14525184 -248.32724103 253.61598158 -248.2825799 240.08668876 C-248.27370453 237.35560809 -248.26576 234.62452582 -248.25786972 231.89344215 C-248.19543891 211.77053358 -247.91386859 191.66836221 -247.3009702 171.55431128 C-247.01536041 162.15561316 -246.84331017 152.75760129 -246.71875 143.35546875 C-246.70870508 142.60303292 -246.69866017 141.85059709 -246.68831086 141.07536018 C-246.61291956 135.38811694 -246.54211766 129.70082288 -246.47393799 124.01348877 C-246.28743097 108.46645467 -246.08042143 92.93309794 -245.36645508 77.39910889 C-244.86031876 66.34221431 -244.66015551 55.28130291 -244.44775391 44.21557617 C-244.24318913 33.74054605 -243.95480021 23.27753349 -243.48242188 12.81079102 C-243.43599548 11.7635511 -243.38956909 10.71631119 -243.34173584 9.63733673 C-243.22874364 7.09151535 -243.11481947 4.54573951 -243 2 C-241.75451889 1.98969254 -240.50903778 1.97938507 -239.22581482 1.96876526 C-223.29634845 1.83658912 -207.36691785 1.70039084 -191.4375 1.5625 C-190.15918808 1.55147877 -188.88087616 1.54045753 -187.56382751 1.52910233 C-148.71263292 1.20245195 -148.71263292 1.20245195 -109.86328125 0.7109375 C-108.69406789 0.69353044 -108.69406789 0.69353044 -107.50123405 0.67577171 C-99.94779959 0.56268273 -92.39461587 0.44074963 -84.84155273 0.30493164 C-56.56421302 -0.1741505 -28.28041967 -0.04040015 0 0 Z " fill="#000000" transform="translate(943,401)"/>
</svg>
